<svg clip-rule="evenodd" fill-rule="evenodd" stroke-linejoin="round" stroke-miterlimit="2" viewBox="0 0 40 40" xmlns="http://www.w3.org/2000/svg"><path d="m10 32.2.3-.3c1.4-1.5 3-2.7 4.6-3.4 1.7-.7 3.3-1.1 5.1-1.1s3.5.4 5.1 1.1c1.7.8 3.2 1.9 4.6 3.5l.2.2h1.3v-24.5h-22.4v24.5zm-.3-23.6h20.6v22.7c-1.3-1.4-2.9-2.6-4.6-3.5-1.8-.9-3.7-1.3-5.7-1.3s-3.9.5-5.7 1.3c-1.7.8-3.3 2-4.6 3.5z" fill-rule="nonzero"/><path d="m20 14.8c2.649 0 4.8 2.151 4.8 4.8s-2.151 4.8-4.8 4.8-4.8-2.151-4.8-4.8 2.151-4.8 4.8-4.8zm0 .9c-2.152 0-3.9 1.748-3.9 3.9s1.748 3.9 3.9 3.9 3.9-1.748 3.9-3.9-1.748-3.9-3.9-3.9z"/></svg>