<svg fill-rule="evenodd" stroke-linejoin="round" stroke-miterlimit="2" viewBox="0 0 40 40" xmlns="http://www.w3.org/2000/svg"><path d="m20 34.5c-2 0-3.883-.38-5.648-1.141-1.766-.761-3.302-1.794-4.608-3.098s-2.339-2.838-3.101-4.602c-.762-1.763-1.143-3.647-1.143-5.652s.38-3.89 1.141-5.655c.761-1.766 1.794-3.302 3.098-4.607 1.304-1.306 2.838-2.34 4.602-3.102 1.763-.762 3.647-1.143 5.652-1.143s3.89.381 5.655 1.142c1.766.761 3.302 1.794 4.607 3.099 1.306 1.305 2.34 2.84 3.102 4.604s1.143 3.649 1.143 5.655v1.361c0 1.315-.455 2.426-1.366 3.333-.911.908-2.029 1.362-3.356 1.362-1.007 0-1.916-.301-2.727-.903-.812-.602-1.366-1.384-1.662-2.347-.583.981-1.346 1.768-2.289 2.361-.942.592-1.976.889-3.1.889-1.678 0-3.107-.588-4.286-1.764-1.18-1.176-1.77-2.612-1.77-4.306 0-1.695.59-3.126 1.77-4.292 1.179-1.166 2.608-1.75 4.286-1.75s3.107.584 4.286 1.75c1.18 1.167 1.77 2.603 1.77 4.309v1.358c0 1.021.368 1.892 1.104 2.613s1.609 1.082 2.618 1.082 1.882-.361 2.618-1.082 1.104-1.592 1.104-2.613v-1.361c0-3.769-1.308-6.961-3.923-9.577-2.615-2.615-5.806-3.923-9.574-3.923s-6.961 1.308-9.578 3.923-3.925 5.806-3.925 9.574 1.308 6.961 3.923 9.578c2.616 2.617 5.808 3.925 9.577 3.925h8.444v1zm.003-9.444c1.406 0 2.599-.492 3.58-1.475.982-.983 1.473-2.177 1.473-3.581 0-1.417-.492-2.613-1.476-3.59s-2.178-1.466-3.583-1.466-2.599.49-3.58 1.469c-.982.978-1.473 2.177-1.473 3.597 0 1.391.492 2.58 1.476 3.566s2.178 1.48 3.583 1.48z" fill-rule="nonzero"/></svg>