<?xml version="1.0" encoding="utf-8"?>
<!-- Generator: Adobe Illustrator 27.9.0, SVG Export Plug-In . SVG Version: 6.00 Build 0)  -->
<svg version="1.1" id="Layer_1" xmlns="http://www.w3.org/2000/svg" xmlns:xlink="http://www.w3.org/1999/xlink" x="0px" y="0px"
	 viewBox="0 0 40 40" style="enable-background:new 0 0 40 40;" xml:space="preserve">
<path d="M23.4,15.8c-0.9-0.9-2-1.4-3.4-1.4c-1.3,0-2.4,0.5-3.4,1.4c-0.9,0.9-1.4,2-1.4,3.4c0,1.3,0.5,2.4,1.4,3.4
	c1,0.9,2.1,1.4,3.4,1.4s2.4-0.5,3.4-1.4c0.9-0.9,1.4-2,1.4-3.4C24.8,17.9,24.3,16.8,23.4,15.8z M22.6,21.9c-0.6,0.6-1.5,1-2.5,1
	s-1.9-0.4-2.7-1.1c-0.7-0.7-1.1-1.6-1.1-2.6s0.4-1.9,1.1-2.6s1.6-1.1,2.6-1.1s1.9,0.4,2.6,1.1s1.1,1.6,1.1,2.6S23.3,21.1,22.6,21.9z
	"/>
<path d="M10,31.8l0.3-0.3c1.4-1.5,3-2.7,4.6-3.4c1.7-0.7,3.3-1.1,5.1-1.1s3.5,0.4,5.1,1.1c1.7,0.8,3.2,1.9,4.6,3.5l0.2,0.2h1.3V7.3
	H8.8v24.5H10z M9.7,8.3h20.6v22.5c-1.3-1.4-2.9-2.6-4.6-3.5C23.9,26.4,22,26,20,26c-2,0-3.9,0.5-5.7,1.3c-1.7,0.8-3.3,2-4.6,3.5V8.3
	z"/>
</svg>
