<?xml version="1.0" encoding="utf-8"?>
<!-- Generator: Adobe Illustrator 27.9.0, SVG Export Plug-In . SVG Version: 6.00 Build 0)  -->
<svg version="1.1" id="Layer_1" xmlns="http://www.w3.org/2000/svg" xmlns:xlink="http://www.w3.org/1999/xlink" x="0px" y="0px"
	 viewBox="0 0 40 40" style="enable-background:new 0 0 40 40;" xml:space="preserve">
<path d="M8.8,30.8v-1h2.5V15.9c0-2.1,0.7-4,2-5.7c1.4-1.6,3.1-2.6,5.2-3V6.5c0-0.4,0.1-0.7,0.4-1s0.6-0.4,1-0.4s0.7,0.1,1,0.4
	s0.4,0.6,0.4,1v0.8c2.1,0.3,3.8,1.3,5.2,3c1.4,1.6,2,3.5,2,5.7v13.9H31v1H8.8V30.8z M20,34.9c-0.7,0-1.3-0.2-1.8-0.7
	s-0.7-1.1-0.7-1.8h5c0,0.7-0.2,1.3-0.7,1.8S20.7,34.9,20,34.9z M12.3,29.8h15.3V15.9c0-2.1-0.7-3.9-2.2-5.4S22.1,8.3,20,8.3
	s-3.9,0.7-5.4,2.2s-2.2,3.3-2.2,5.4v13.9H12.3z"/>
</svg>
