<?xml version="1.0" encoding="utf-8"?>
<!-- Generator: Adobe Illustrator 27.9.0, SVG Export Plug-In . SVG Version: 6.00 Build 0)  -->
<svg version="1.1" id="Layer_1" xmlns="http://www.w3.org/2000/svg" xmlns:xlink="http://www.w3.org/1999/xlink" x="0px" y="0px"
	 viewBox="0 0 40 40" style="enable-background:new 0 0 40 40;" xml:space="preserve">
<path d="M8.8,31.2v-1h2.5V16.3c0-2.1,0.7-4,2-5.7c1.4-1.6,3.1-2.6,5.2-3V6.9c0-0.4,0.1-0.7,0.4-1c0.3-0.3,0.6-0.4,1-0.4
	c0.4,0,0.7,0.1,1,0.4c0.3,0.3,0.4,0.6,0.4,1v0.8c2.1,0.3,3.8,1.3,5.2,3c1.4,1.6,2,3.5,2,5.7v13.9h2.5v1H8.8z M20,35.3
	c-0.7,0-1.3-0.2-1.8-0.7c-0.5-0.5-0.7-1.1-0.7-1.8h5c0,0.7-0.2,1.3-0.7,1.8C21.3,35.1,20.7,35.3,20,35.3z M12.3,30.2h15.3V16.3
	c0-2.1-0.7-3.9-2.2-5.4c-1.5-1.5-3.3-2.2-5.4-2.2s-3.9,0.7-5.4,2.2c-1.5,1.5-2.2,3.3-2.2,5.4V30.2z"/>
</svg>
